HIERARCHY
ROOT Hips
{
  OFFSET -331.093 83.8371 -317.828
  CHANNELS 6 Xposition Yposition Zposition Zrotation Xrotation Yrotation
  JOINT LeftUpLeg
  {
    OFFSET 8.64259 1.95398 -2.38835
    CHANNELS 3 Zrotation Xrotation Yrotation
    JOINT LeftLeg
    {
      OFFSET 43.7702 0 0
      CHANNELS 3 Zrotation Xrotation Yrotation
      JOINT LeftFoot
      {
        OFFSET 40.6238 0 0
        CHANNELS 3 Zrotation Xrotation Yrotation
        JOINT LeftToeBase
        {
          OFFSET 12.7242 0 0
          CHANNELS 3 Zrotation Xrotation Yrotation
          End Site
          {
            OFFSET 0 0 0
          }
        }
      }
    }
  }
  JOINT RightUpLeg
  {
    OFFSET -8.2249 1.95398 -2.59336
    CHANNELS 3 Zrotation Xrotation Yrotation
    JOINT RightLeg
    {
      OFFSET 43.5653 0 0
      CHANNELS 3 Zrotation Xrotation Yrotation
      JOINT RightFoot
      {
        OFFSET 40.6238 0 0
        CHANNELS 3 Zrotation Xrotation Yrotation
        JOINT RightToeBase
        {
          OFFSET 12.7242 0 0
          CHANNELS 3 Zrotation Xrotation Yrotation
          End Site
          {
            OFFSET 0 0 0
          }
        }
      }
    }
  }
  JOINT Spine
  {
    OFFSET 0.165834 0.87714 6.61349
    CHANNELS 3 Zrotation Xrotation Yrotation
    JOINT Spine1
    {
      OFFSET 7.38963 1.71661e-005 0
      CHANNELS 3 Zrotation Xrotation Yrotation
      JOINT Spine2
      {
        OFFSET 11.9445 1.14441e-005 0
        CHANNELS 3 Zrotation Xrotation Yrotation
        JOINT Spine3
        {
          OFFSET 14.7254 4.19617e-005 0
          CHANNELS 3 Zrotation Xrotation Yrotation
          JOINT Spine4
          {
            OFFSET 10.9679 0 0
            CHANNELS 3 Zrotation Xrotation Yrotation
            JOINT RightShoulder
            {
              OFFSET 2.46616 -1.6653 3.69651
              CHANNELS 3 Zrotation Xrotation Yrotation
              JOINT RightArm
              {
                OFFSET 13.0012 0 0
                CHANNELS 3 Zrotation Xrotation Yrotation
                JOINT RightForeArm
                {
                  OFFSET 28.7848 1.62311e-005 0
                  CHANNELS 3 Zrotation Xrotation Yrotation
                  JOINT RightHand
                  {
                    OFFSET 26.5688 1.62095e-005 0
                    CHANNELS 3 Zrotation Xrotation Yrotation
                    End Site
                    {
                      OFFSET 0 0 0
                    }
                  }
                }
              }
            }
            JOINT LeftShoulder
            {
              OFFSET 2.38034 -1.29275 -3.7523
              CHANNELS 3 Zrotation Xrotation Yrotation
              JOINT LeftArm
              {
                OFFSET 16.3182 6.07031e-005 0
                CHANNELS 3 Zrotation Xrotation Yrotation
                JOINT LeftForeArm
                {
                  OFFSET 27.0901 0 0
                  CHANNELS 3 Zrotation Xrotation Yrotation
                  JOINT LeftHand
                  {
                    OFFSET 24.5451 1.51738e-005 0
                    CHANNELS 3 Zrotation Xrotation Yrotation
                    End Site
                    {
                      OFFSET 0 0 0
                    }
                  }
                }
              }
            }
            JOINT Neck
            {
              OFFSET 5.0226 -0.0266342 0
              CHANNELS 3 Zrotation Xrotation Yrotation
              JOINT Head
              {
                OFFSET 6.69364 2.86102e-005 0
                CHANNELS 3 Zrotation Xrotation Yrotation
                End Site
                {
                  OFFSET 0 0 0
                }
              }
            }
          }
        }
      }
    }
  }
}
MOTION
Frames:	15
Frame Time:	0.0416667
51.3167 94.9856 -333.338 14.8883 -86.589 15.7881 -174.917 -1.35913 86.4915 -22.2041 14.4889 -1.39892 70.0449 14.7456 16.2 45.4063 15.0116 4.87031 176.789 31.1117 93.7709 -15.3756 4.18575 -0.093167 61.0804 -1.42816 -0.793514 37.8694 -1.50843 -6.74727 -0.569307 7.62855 -90.1732 11.6161 -1.21357 -0.219349 -0.0543206 -1.22205 -0.165722 -22.5932 -1.09154 -0.573972 -2.58052 -1.09154 -0.573981 91.3443 -42.0991 -100.167 35.9264 -11.7218 9.36168 -10.4949 -16.5973 -37.0479 -20.2951 0.855254 -11.2385 -96.8704 -49.3272 68.8588 -21.1697 14.9491 -2.18198 9.13854 10.4748 -45.8884 11.4956 0.841132 3.27931 -4.04871 0.624681 1.61203 7.59271 0.590943 1.72429 
51.2482 94.5101 -330.533 12.9887 -86.1972 13.6644 -175.045 -2.81599 86.3284 -21.9697 14.2853 -1.12053 69.4112 13.9933 15.874 48.334 16.8267 3.44807 176.937 31.6235 93.6453 -13.1504 4.8815 -0.136449 61.7594 -1.70564 -0.942153 37.7883 -1.20883 -5.27946 -0.586683 7.63952 -90.1727 11.5942 -1.24791 -0.215076 -0.0761742 -1.25617 -0.159937 -22.6153 -1.12558 -0.580227 -2.60264 -1.12557 -0.580223 91.2872 -42.3188 -100.208 35.5441 -12.1846 9.29192 -9.7863 -15.5496 -36.8768 -14.2763 -0.365216 -2.87117 -96.7861 -49.232 68.9515 -20.7777 15.1944 -2.76204 9.21399 10.4849 -46.0158 11.3309 0.837999 3.34086 -3.77508 0.781763 1.1893 7.69417 0.832302 2.24186 
51.1234 94.1644 -327.599 20.613 -85.1986 21.4951 -174.625 -3.40065 87.3364 -22.6551 16.2265 -1.09348 68.2736 12.1091 14.5547 51.1592 19.7691 4.33597 177.169 32.0174 93.5154 -11.6051 5.01838 -0.279236 61.883 -1.86534 -1.01922 37.0825 -1.17165 -5.32527 -0.669453 7.57363 -90.2444 11.7252 -1.44619 -0.335109 0.0550126 -1.45952 -0.271119 -22.4851 -1.27861 -0.754317 -2.47242 -1.2786 -0.754311 91.434 -42.5241 -99.9107 35.2081 -12.4322 9.83603 -9.82053 -14.7009 -37.3602 -6.67776 -0.577752 4.26389 -96.8684 -49.1998 68.8203 -20.7625 15.3867 -2.75877 10.1727 11.3517 -46.5582 11.4632 1.01224 4.70512 -3.77308 0.722245 0.855698 7.91035 0.830466 2.43649 
51.0843 93.8693 -324.196 17.0192 -85.9123 17.1966 -174.943 -6.03534 86.8625 -22.3816 15.746 -0.762794 66.2651 7.46573 9.30278 54.1407 25.3229 8.90386 177.345 32.9127 93.1063 -16.0894 3.2354 -0.673246 61.5853 -1.10902 -0.595386 38.0548 -1.07179 -4.50222 -0.646869 7.65358 -90.166 11.5666 -1.36448 -0.189457 -0.103642 -1.37148 -0.129211 -22.6437 -1.24445 -0.590836 -2.63101 -1.24444 -0.590834 91.1302 -43.3568 -100.21 34.4476 -12.1705 10.2255 -10.0257 -14.3944 -37.5405 -5.31104 -0.503303 5.56663 -96.4486 -48.7257 69.2839 -21.1579 14.9529 -2.96484 9.12226 10.659 -45.4731 10.9706 0.781446 3.06577 -3.30681 0.879392 0.407808 7.93995 1.05966 2.75295 
50.7035 93.6861 -320.513 19.4235 -85.6985 19.7344 -174.536 -7.38242 87.9871 -23.254 16.87 -0.522852 65.306 5.68066 6.81677 53.626 26.8895 12.0542 177.136 34.2485 93.4342 -21.9356 3.27612 -0.462662 60.8481 -0.495471 -0.257305 36.4297 -1.50674 -7.34494 -0.681073 7.65558 -90.2441 11.5611 -1.46909 -0.335034 -0.10904 -1.48241 -0.270044 -22.6493 -1.30048 -0.761129 -2.63669 -1.30047 -0.761135 90.8018 -43.1904 -100.796 34.1059 -12.2364 10.7585 -9.09534 -13.6556 -37.7812 -6.73668 -0.602656 5.06179 -96.63 -48.8416 69.0537 -21.2852 14.4819 -2.80983 9.17171 11.0409 -45.0501 10.7157 0.778902 3.19831 -2.78248 0.962653 1.17443 7.85879 0.996326 2.14583 
50.2609 93.8095 -316.809 22.683 -85.1891 24.0654 -173.528 -7.9506 90.2773 -24.4647 19.1539 -0.353821 64.4555 5.37884 6.54226 50.423 25.1532 14.4268 176.902 34.7746 94.5488 -26.3908 4.06759 -0.18205 61.8335 -0.766838 -0.461245 36.2319 -1.63955 -8.15036 -0.73263 7.63439 -90.4053 11.6017 -1.64719 -0.637081 -0.0683118 -1.67363 -0.563964 -22.6085 -1.37957 -1.10273 -2.59587 -1.37957 -1.10274 90.4838 -43.3162 -101.29 33.6902 -11.7837 10.7775 -9.59894 -14.2304 -38.3565 -5.16065 -0.472527 5.00375 -96.8389 -48.7861 68.7278 -21.5666 13.8605 -2.3795 9.00733 11.6638 -43.9396 10.815 0.774076 3.09758 -2.50857 1.19041 1.42238 7.91186 1.19219 2.17617 
49.8136 93.9004 -312.909 21.1041 -85.4826 23.0775 -172.5 -8.52284 91.7837 -25.9388 20.2869 -0.420921 61.1459 3.61441 6.70501 49.3217 24.883 15.7519 176.234 33.8856 95.4116 -29.5159 4.18807 0.191655 62.2307 -0.67841 -0.439234 36.4719 -1.48161 -7.18351 -0.763903 7.64372 -90.5139 11.5799 -1.76025 -0.842918 -0.0900825 -1.79565 -0.764628 -22.6299 -1.42555 -1.33302 -2.61723 -1.42556 -1.33303 90.7477 -42.3185 -101.111 34.6088 -12.0373 10.1869 -8.93149 -13.4849 -37.8862 -6.56754 -0.62433 5.96872 -97.0888 -49.005 68.4322 -21.9284 13.4955 -1.39748 8.40689 11.8374 -42.6485 10.8443 0.780438 3.12849 -2.89051 1.60407 2.1845 8.25847 1.50751 1.99605 
49.227 94.1306 -309.304 33.7005 -83.2589 36.2511 -172.393 -4.19587 94.6627 -31.4422 20.918 0.382349 54.4631 -3.24135 1.12676 48.2299 27.0715 21.1127 175.273 34.1781 95.9588 -32.3138 5.068 0.861501 64.4481 -1.34674 -0.84887 33.5805 -1.12967 -6.50421 -1.0288 7.44533 -90.6053 11.975 -2.3307 -0.952027 0.305848 -2.37033 -0.84848 -22.2387 -1.93684 -1.60862 -2.22609 -1.93684 -1.60862 91.0331 -42.1415 -100.679 35.0378 -12.5148 9.82276 -9.44263 -14.2797 -38.3277 -5.985 -0.576655 6.05327 -96.5982 -48.554 69.0068 -22.5389 13.7296 -0.315858 7.86318 12.0772 -41.6186 10.4716 0.795442 3.48732 -2.8097 1.9177 2.0115 7.33581 1.84945 2.36225 
48.699 94.3724 -305.26 17.6462 -84.9017 19.3096 -171.482 -3.12142 93.9805 -36.0131 20.2171 -0.338041 49.0254 -7.14138 -1.00669 37.6675 14.6667 20.1038 176.117 32.4125 96.5273 -35.5616 3.58934 -0.290724 68.0629 -2.37941 -1.4547 30.6818 -0.826896 -5.87309 -0.793155 7.47462 -90.4738 11.9192 -1.80025 -0.751007 0.249312 -1.83156 -0.67104 -22.2915 -1.49132 -1.25741 -2.27884 -1.49132 -1.25741 91.1757 -41.8015 -100.526 35.3896 -12.9072 10.0613 -10.8629 -14.8819 -39.8057 -6.79301 -0.636202 5.64455 -96.7875 -48.8038 68.8095 -22.5633 13.6861 0.426954 7.24519 12.4457 -40.0846 10.5559 0.679264 2.41638 -3.10393 2.09368 2.70214 7.5449 1.89425 1.62703 
48.3079 94.7049 -301.488 8.48751 -85.5091 10.324 -171.184 0.921116 94.409 -43.6238 18.1215 -0.146472 45.9339 -9.4308 -2.60285 31.8304 9.51716 23.3836 176.159 29.6693 97.2556 -36.181 2.84463 -0.556705 70.3728 -3.25083 -1.89805 30.6981 -0.708284 -4.98966 -0.684044 7.51532 -90.4455 11.8386 -1.56979 -0.720482 0.168417 -1.59998 -0.650691 -22.3705 -1.28069 -1.15899 -2.3579 -1.28069 -1.159 90.9554 -41.2703 -101.038 36.0122 -13.1472 9.75219 -12.2656 -14.9164 -41.336 -7.47764 -0.676486 5.17514 -96.5834 -48.6705 69.0668 -23.0504 12.8075 1.21453 7.16541 12.5796 -39.5066 10.9085 0.832275 3.55464 -3.06893 1.98437 2.6153 7.84485 1.79467 1.5764 
47.9906 95.3392 -297.757 -14.5105 -85.9089 -12.5336 -170.323 5.6178 94.5585 -50.8305 17.0741 -0.544532 48.837 -7.44388 -0.323425 31.1026 8.94114 24.1 176.539 25.9647 97.8347 -34.8553 1.69432 -0.992125 71.5689 -3.88903 -2.1959 30.9756 -0.733766 -5.0527 -0.444587 7.592 -90.4204 11.6858 -1.08149 -0.724951 0.0150844 -1.11235 -0.676653 -22.5207 -0.813624 -1.01646 -2.50805 -0.813628 -1.01647 91.0212 -40.838 -101.04 35.7707 -13.0576 8.70108 -10.8892 -12.0343 -43.2273 -5.98555 -0.506873 4.26826 -96.9456 -49.0353 68.6527 -22.8773 11.9495 1.54451 6.66029 12.3548 -38.6006 11.9576 0.944537 3.821 -2.93703 1.87038 2.69395 8.26245 1.63857 1.16498 
47.6954 96.0029 -294.251 -23.8194 -85.5505 -22.6835 -170.448 10.9831 93.041 -54.8633 16.3012 -0.841433 51.15 -5.81357 0.980954 34.3888 11.8929 22.0568 176.549 22.7863 97.301 -33.165 1.13905 -1.477 72.9455 -4.61018 -2.51028 30.9601 -0.622533 -4.24465 -0.351067 7.59353 -90.281 11.6856 -0.829998 -0.47293 0.0148864 -0.85001 -0.435954 -22.5211 -0.649497 -0.700524 -2.50844 -0.649497 -0.700523 90.8886 -40.4257 -101.378 35.5257 -13.4899 7.40178 -9.22225 -11.9636 -42.6097 -7.31263 -0.46656 1.4519 -96.6898 -49.0898 69.0468 -23.248 10.8603 2.07662 6.89586 12.8653 -38.0704 13.2458 1.10956 4.37078 -3.12811 1.85195 2.83973 8.50047 1.57031 0.718224 
47.3786 96.7518 -290.407 -31.6118 -84.8304 -31.356 -170.686 15.4503 91.4773 -55.1957 15.5019 -1.31277 53.3849 -4.17763 1.95026 36.1742 13.7166 21.6505 176.791 19.1609 96.7336 -30.4392 0.0826479 -2.31575 73.6156 -5.00835 -2.67981 31.7207 -0.527225 -3.29877 -0.206995 7.54587 -90.1495 11.7816 -0.481864 -0.246936 0.110742 -0.492256 -0.225487 -22.4247 -0.38538 -0.380341 -2.41207 -0.385363 -0.380324 91.0188 -40.0275 -101.262 35.6327 -13.5627 6.89606 -11.7196 -12.9064 -45.3073 -9.79188 -0.734789 3.2397 -96.7931 -49.378 68.9889 -23.4494 10.4907 2.81469 6.60127 12.816 -37.5104 13.526 1.04095 3.71959 -3.93424 1.60489 3.32584 9.30986 1.21415 -0.157706 
47.1363 97.2678 -286.673 -47.6002 -84.7115 -48.2303 -171.072 18.128 90.1095 -52.8879 14.2925 -1.81382 55.5806 -2.67858 2.23881 39.206 18.6657 24.6128 176.501 14.5884 95.9066 -28.1627 -1.68443 -2.90656 74.5383 -5.545 -2.88984 30.2959 -0.357593 -2.50648 -0.0327172 7.63603 -89.998 11.6018 -0.0640761 0.0104915 -0.0691729 -0.0635511 0.013296 -22.6043 -0.0642697 -0.00925301 -2.59168 -0.0642706 -0.0092579 90.9881 -39.7313 -101.396 35.4548 -13.5232 6.29888 -10.8976 -11.0433 -46.9943 -9.40408 -0.721661 3.50987 -96.4904 -49.0907 69.3401 -24.3751 10.3182 3.70453 6.90843 13.2387 -37.6171 13.7176 1.07125 3.83637 -4.18242 1.44499 2.99383 9.17009 1.12892 0.151282 
46.7944 97.6196 -282.97 -53.7427 -83.6445 -54.7314 -171.574 21.3169 89.401 -48.3885 13.5835 -2.40702 57.9276 -0.753927 3.31994 42.02 19.5765 20.2765 176.298 11.0457 95.5736 -25.5297 -2.14691 -3.14123 74.8519 -5.89233 -3.00784 29.3924 -0.10393 -0.774021 0.151412 7.61034 -89.9071 11.6526 0.344761 0.149342 -0.0182896 0.35101 0.134018 -22.5536 0.283941 0.246048 -2.54097 0.283944 0.246056 91.1664 -39.3702 -101.185 35.5346 -13.4815 5.96729 -10.8201 -10.1515 -48.6754 -9.38765 -0.66347 2.71669 -96.0538 -48.9148 69.9277 -25.1135 10.5194 4.76819 7.30055 13.4817 -38.3095 13.6496 1.08773 3.99347 -3.80144 1.07846 2.80832 8.5089 0.791565 0.299951 
